<svg xmlns="http://www.w3.org/2000/svg" xmlns:xlink="http://www.w3.org/1999/xlink" width="256" viewBox="0 0 192 191.999996" height="256" preserveAspectRatio="xMidYMid meet"><defs><clipPath id="id1"><path d="M 117 25 L 170 25 L 170 71 L 117 71 Z M 117 25 " clip-rule="nonzero"></path></clipPath><clipPath id="id2"><path d="M 118.648438 24.203125 L 172.800781 31.34375 L 167.25 73.421875 L 113.101562 66.28125 Z M 118.648438 24.203125 " clip-rule="nonzero"></path></clipPath><clipPath id="id3"><path d="M 17.488281 10.859375 L 172.792969 31.34375 L 158.894531 136.714844 L 3.589844 116.234375 Z M 17.488281 10.859375 " clip-rule="nonzero"></path></clipPath><clipPath id="id4"><path d="M 113 56 L 152 56 L 152 74 L 113 74 Z M 113 56 " clip-rule="nonzero"></path></clipPath><clipPath id="id5"><path d="M 118.648438 24.203125 L 172.800781 31.34375 L 167.25 73.421875 L 113.101562 66.28125 Z M 118.648438 24.203125 " clip-rule="nonzero"></path></clipPath><clipPath id="id6"><path d="M 17.488281 10.859375 L 172.792969 31.34375 L 158.894531 136.714844 L 3.589844 116.234375 Z M 17.488281 10.859375 " clip-rule="nonzero"></path></clipPath><clipPath id="id7"><path d="M 19.199219 24.203125 L 153.148438 24.203125 L 153.148438 167.847656 L 19.199219 167.847656 Z M 19.199219 24.203125 " clip-rule="nonzero"></path></clipPath></defs><g clip-path="url(#id1)"><g clip-path="url(#id2)"><g clip-path="url(#id3)"><path fill="#183e8c" d="M 153.878906 48.773438 L 153.117188 36.359375 L 144.707031 32.425781 L 134.683594 39.792969 Z M 169.496094 56.078125 L 167.332031 43.011719 L 156.722656 38.046875 L 157.480469 50.460938 Z M 141.101562 30.738281 L 130.488281 25.773438 L 119.066406 32.484375 L 131.078125 38.105469 Z M 129.40625 41.179688 L 117.835938 35.769531 L 123.414062 59.613281 C 124.722656 59.789062 126.03125 60.027344 127.332031 60.335938 Z M 132.75 42.746094 L 130.742188 61.292969 C 132.328125 61.8125 133.898438 62.429688 135.445312 63.152344 C 136.996094 63.878906 138.476562 64.6875 139.890625 65.574219 L 152.847656 52.148438 Z M 167.761719 59.125 L 145.875 70.121094 C 144.902344 69.230469 143.878906 68.382812 142.8125 67.578125 L 156.191406 53.710938 L 167.761719 59.125 " fill-opacity="1" fill-rule="nonzero"></path></g></g></g><g clip-path="url(#id4)"><g clip-path="url(#id5)"><g clip-path="url(#id6)"><path fill="#183e8c" d="M 139.617188 103.359375 C 138.8125 106.351562 137.484375 109.238281 135.597656 111.664062 C 133.753906 114.125 131.367188 116.085938 128.691406 117.449219 C 127.339844 118.101562 125.910156 118.59375 124.429688 118.9375 L 123.308594 119.152344 C 122.933594 119.222656 122.542969 119.238281 122.164062 119.289062 L 121.589844 119.355469 L 121.007812 119.378906 L 120.421875 119.40625 L 119.832031 119.398438 C 116.695312 119.367188 113.46875 118.660156 110.398438 117.386719 C 107.3125 116.121094 104.417969 114.347656 101.730469 112.167969 C 99.03125 109.980469 96.539062 107.425781 94.21875 104.652344 C 92.074219 102.085938 90.0625 99.351562 88.082031 96.539062 C 87.75 96.066406 87.414062 95.601562 87.085938 95.121094 L 87.722656 94.554688 C 93.339844 89.632812 98.871094 85.03125 104.839844 81.78125 C 106.496094 80.859375 108.199219 80.058594 109.925781 79.378906 C 111.265625 78.847656 112.617188 78.394531 113.980469 78.023438 C 116.226562 77.402344 118.492188 77.027344 120.726562 76.921875 C 121.59375 76.878906 122.453125 76.875 123.308594 76.917969 C 123.523438 76.921875 123.640625 76.941406 123.785156 76.957031 L 124.214844 76.988281 C 124.515625 77.046875 124.8125 77.078125 125.113281 77.144531 C 125.726562 77.289062 126.355469 77.453125 126.996094 77.699219 C 128.269531 78.179688 129.570312 78.859375 130.816406 79.683594 C 133.300781 81.347656 135.582031 83.585938 137.121094 85.992188 C 137.929688 87.203125 138.570312 88.527344 139.089844 89.90625 C 139.367188 90.589844 139.550781 91.3125 139.761719 92.023438 C 139.914062 92.753906 140.09375 93.484375 140.179688 94.234375 C 140.617188 97.21875 140.386719 100.355469 139.617188 103.359375 Z M 147.019531 79.820312 C 140.402344 68.957031 127.78125 63.222656 114.832031 65.207031 C 106.9375 66.417969 99.546875 69.96875 92.949219 74.472656 C 85.046875 79.867188 78.234375 86.621094 71.125 92.976562 C 65.40625 98.078125 59.207031 103.078125 52.15625 106.214844 C 46.679688 108.652344 40.421875 109.789062 34.632812 108.226562 C 25.597656 105.785156 20.019531 97.171875 19.488281 88.140625 C 19.28125 84.90625 19.75 81.652344 20.789062 78.621094 C 23.882812 69.632812 33.800781 62.933594 43.390625 64.132812 C 46.640625 64.5 49.820312 65.574219 52.800781 67.214844 C 55.785156 68.859375 58.566406 71.023438 61.160156 73.472656 C 65.429688 77.5625 69.152344 82.367188 72.675781 87.429688 L 78.058594 82.527344 C 78.121094 82.46875 78.1875 82.410156 78.253906 82.351562 C 76.953125 80.554688 75.617188 78.761719 74.226562 76.996094 C 71.792969 73.914062 69.167969 70.914062 66.238281 68.132812 C 57.5 59.847656 46.351562 54.335938 34.050781 57.289062 C 18.265625 61.078125 8.738281 77.003906 10.847656 92.71875 C 11.421875 97.019531 12.828125 101.214844 15.039062 104.949219 C 18.777344 111.269531 24.835938 116.226562 31.84375 118.429688 C 40.207031 121.058594 49.445312 119.71875 57.515625 116.296875 C 62.023438 114.390625 66.238281 111.863281 70.226562 109.046875 C 71.183594 108.371094 81.53125 100.800781 81.203125 100.308594 C 81.519531 100.789062 81.84375 101.265625 82.167969 101.746094 C 89.476562 112.601562 98.554688 123.246094 111.53125 127.179688 C 127.65625 132.066406 144.0625 123.527344 149.605469 107.734375 C 152.125 100.542969 152.324219 92.464844 149.660156 85.28125 C 148.9375 83.34375 148.050781 81.515625 147.019531 79.820312 " fill-opacity="1" fill-rule="nonzero"></path></g></g></g><g clip-path="url(#id7)"><path fill="#e2136e" d="M 120.34375 63.289062 C 115.460938 63.28125 110.828125 64.347656 106.664062 66.253906 C 101.378906 68.679688 96.84375 72.472656 93.523438 77.179688 L 93.382812 77.382812 L 87.214844 85.652344 L 85.738281 87.632812 L 71.175781 107.160156 L 71.125 107.121094 C 67.234375 113.402344 60.144531 117.605469 52.035156 117.605469 C 39.75 117.605469 29.789062 107.949219 29.789062 96.03125 C 29.789062 84.117188 39.75 74.460938 52.035156 74.460938 C 64.324219 74.460938 74.285156 84.117188 74.285156 96.03125 C 74.285156 96.863281 74.234375 97.679688 74.140625 98.484375 L 84.648438 84.390625 L 84.78125 84.214844 L 84.78125 24.210938 C 78.984375 24.210938 74.285156 28.90625 74.285156 34.703125 L 74.285156 72.011719 C 71.75 69.664062 68.84375 67.710938 65.660156 66.253906 C 61.5 64.34375 56.867188 63.28125 51.984375 63.289062 C 33.867188 63.316406 19.292969 77.917969 19.292969 96.03125 C 19.292969 114.117188 33.953125 128.777344 52.035156 128.777344 C 56.902344 128.777344 61.519531 127.714844 65.667969 125.8125 C 71.058594 123.339844 75.660156 119.449219 78.996094 114.621094 L 85.011719 106.714844 L 86.636719 104.582031 L 87.550781 103.382812 L 87.550781 103.378906 L 100.859375 85.535156 C 104.660156 78.929688 111.941406 74.460938 120.296875 74.460938 C 132.582031 74.460938 142.542969 84.117188 142.542969 96.03125 C 142.542969 107.949219 132.582031 117.605469 120.296875 117.605469 C 108.007812 117.605469 98.046875 107.949219 98.046875 96.03125 C 98.046875 95.296875 98.085938 94.570312 98.160156 93.855469 L 87.753906 107.847656 L 87.554688 108.121094 L 87.554688 167.855469 C 93.351562 167.855469 98.046875 163.160156 98.046875 157.363281 L 98.046875 120.054688 C 100.582031 122.402344 103.492188 124.355469 106.671875 125.8125 C 110.820312 127.714844 115.433594 128.777344 120.296875 128.777344 C 138.382812 128.777344 153.039062 114.117188 153.039062 96.03125 C 153.039062 77.914062 138.460938 63.3125 120.34375 63.289062 " fill-opacity="1" fill-rule="nonzero"></path></g></svg>